#!OML:ASF I:\salsa\salsa 7_09\Patient 1\Session 1\dancerfemale.ASF
:FULLY-SPECIFIED
:DEGREES
2201
root 5.7943 16.113 -2.67911 -354.222 251.734 0.671004
lowerback -4.48086 0.077486 -0.0726126
upperback -7.31571 -0.220464 -0.414566
thorax -5.06142 -0.250396 -0.377119
lowerneck 1.80697 -1.27913 -8.8665
upperneck 13.4858 -2.93295 8.30228
head 3.94184 -1.6984 3.92802
rclavicle -1.49337e-014 -4.57205e-015
rhumerus -42.2097 -0.214929 -94.7247
rradius 78.4286
rwrist 0.191132
rhand 3.29337 60.6611
rfingers 7.12502
rthumb 28.7409 32.8531
lclavicle -1.49337e-014 -4.57205e-015
lhumerus -31.285 9.73527 76.1089
lradius 121.667
lwrist 7.05119
lhand -12.9088 44.7732
lfingers 7.12502
lthumb 13.1811 74.3365
rfemur 6.22065 3.1057 18.5273
rtibia 18.3243
rfoot -11.9673 4.37257
rtoes -38.2465
lfemur -30.1588 3.98955 -18.1907
ltibia 31.9102
lfoot -12.7851 9.65405
ltoes 22.7464
2202
root 5.98844 16.1066 -2.74378 -355.85 252.372 2.36829
lowerback -4.70501 0.188199 -0.0153273
upperback -6.95889 -0.0319981 -0.0399897
thorax -4.55523 -0.136581 -0.023398
lowerneck 1.70139 -1.43211 -9.3934
upperneck 13.0279 -3.07499 8.40583
head 3.84425 -1.77039 4.04071
rclavicle -6.83819e-014 -1.35174e-014
rhumerus -40.8247 0.467769 -94.8112
rradius 77.1901
rwrist 0.170921
rhand 3.55477 60.2198
rfingers 7.12502
rthumb 28.9905 32.4545
lclavicle -6.83819e-014 -1.35174e-014
lhumerus -31.8711 10.2619 77.6382
lradius 121.897
lwrist 5.8027
lhand -13.2481 44.7919
lfingers 7.12502
lthumb 12.854 74.3761
rfemur 7.35577 3.01846 19.8641
rtibia 15.4599
rfoot -12.3372 3.14284
rtoes -37.3248
lfemur -30.9258 2.43899 -16.8723
ltibia 32.0094
lfoot -12.0511 10.7263
ltoes 22.4654
2203
root 6.196 16.102 -2.80345 -358.776 252.991 5.40736
lowerback -4.47805 0.484205 0.754415
upperback -6.86306 0.37027 0.060352
thorax -4.5766 0.0359918 -0.348988
lowerneck 1.72114 -1.71012 -9.25348
upperneck 12.8434 -3.4335 8.38753
head 3.81657 -1.93594 3.9986
rclavicle 1.32192e-014 3.18055e-015
rhumerus -39.8845 0.308889 -95.1555
rradius 75.9447
rwrist 0.283262
rhand 3.54969 59.6152
rfingers 7.12502
rthumb 28.9857 31.8489
lclavicle 1.32192e-014 3.18055e-015
lhumerus -32.8218 10.0255 78.8019
lradius 121.902
lwrist 4.86949
lhand -14.4367 44.0117
lfingers 7.12502
lthumb 11.708 73.6645
rfemur 8.58244 3.04175 21.6154
rtibia 12.1767
rfoot -12.2765 1.77937
rtoes -35.9289
lfemur -31.9073 1.0875 -15.1892
ltibia 32.2409
lfoot -10.8787 11.9541
ltoes 22.4098
2204
root 6.40478 16.0961 -2.86132 -362.458 253.569 9.23047
lowerback -4.26892 0.815049 1.73384
upperback -6.74855 0.819875 0.176012
thorax -4.55763 0.223232 -0.777275
lowerneck 1.64184 -2.07027 -8.70262
upperneck 12.7001 -3.85748 7.96198
head 3.81082 -2.1287 3.75698
rclavicle 4.8578e-014 9.14409e-015
rhumerus -38.889 -0.167537 -95.4014
rradius 74.5043
rwrist 0.733695
rhand 3.53768 58.9102
rfingers 7.12502
rthumb 28.9742 31.142
lclavicle 4.8578e-014 9.14409e-015
lhumerus -33.7616 9.70653 79.9777
lradius 121.925
lwrist 4.21049
lhand -15.2451 43.1636
lfingers 7.12502
lthumb 10.9284 72.8592
rfemur 10.1028 2.45063 23.3905
rtibia 8.29778
rfoot -11.7661 1.12309
rtoes -34.6084
lfemur -33.0634 0.227756 -13.4378
ltibia 32.5719
lfoot -9.10393 12.9619
ltoes 22.7405
2205
root 6.61448 16.0836 -2.91486 -365.76 254.212 12.599
lowerback -3.89012 0.633735 2.67756
upperback -6.54442 0.604172 0.535901
thorax -4.55919 0.088949 -0.936264
lowerneck 0.86736 -1.96651 -9.29709
upperneck 12.7881 -3.62046 7.99343
head 3.95782 -2.01031 3.86565
rclavicle 4.38569e-014 9.93923e-016
rhumerus -37.5585 1.09579 -95.8893
rradius 72.7822
rwrist 1.15582
rhand 3.33898 58.4097
rfingers 7.12502
rthumb 28.7844 30.609
lclavicle 4.38569e-014 9.93923e-016
lhumerus -34.9031 10.9161 80.8166
lradius 122.072
lwrist 3.41551
lhand -15.5612 42.5116
lfingers 7.12502
lthumb 10.6234 72.2231
rfemur 13.9469 1.69888 24.8338
rtibia -1.59028e-014
rfoot -8.6135 0.610498
rtoes -33.5694
lfemur -34.2681 -0.615067 -11.9552
ltibia 32.9893
lfoot -7.45024 13.7722
ltoes 23.0223
2206
root 6.82943 16.0684 -2.96244 -368.885 254.967 15.7326
lowerback -3.3705 0.736863 3.54372
upperback -6.49382 0.767793 0.518156
thorax -4.78757 0.13113 -1.44374
lowerneck 0.900877 -2.12944 -9.3144
upperneck 12.5588 -3.84957 8.23754
head 3.90704 -2.1091 3.93581
rclavicle -2.60905e-015 1.17283e-014
rhumerus -36.4429 1.34419 -96.23
rradius 71.0916
rwrist 1.55664
rhand 2.56433 58.5639
rfingers 7.12502
rthumb 28.0442 30.6398
lclavicle -2.60905e-015 1.17283e-014
lhumerus -36.0739 10.9339 81.6955
lradius 122.031
lwrist 2.72353
lhand -15.8135 42.0338
lfingers 7.12502
lthumb 10.3801 71.7576
rfemur 13.3923 0.839809 26.1135
rtibia 3.18055e-015
rfoot -9.39487 0.136592
rtoes -32.6904
lfemur -35.5135 -1.68026 -10.6282
ltibia 33.4053
lfoot -6.16915 14.6588
ltoes 23.5931
2207
root 7.0452 16.0582 -3.01589 -372.118 255.572 18.9717
lowerback -2.98758 0.872908 4.21385
upperback -6.34741 0.980586 0.591725
thorax -4.83449 0.214181 -1.74789
lowerneck 1.03719 -2.34747 -9.21371
upperneck 12.093 -4.11003 8.19032
head 3.76595 -2.22817 3.89464
rclavicle 9.59136e-015 -5.76476e-015
rhumerus -35.1216 1.50497 -96.3599
rradius 69.1918
rwrist 1.97446
rhand 1.50481 59.104
rfingers 7.12502
rthumb 27.0309 31.0184
lclavicle 9.59136e-015 -5.76476e-015
lhumerus -37.1045 11.0016 82.7123
lradius 121.851
lwrist 2.10525
lhand -15.8579 41.8844
lfingers 7.12502
lthumb 10.3373 71.6103
rfemur 12.7546 0.100524 27.3468
rtibia 1.59028e-014
rfoot -10.357 -0.320291
rtoes -32.1675
lfemur -36.7611 -2.31181 -9.40581
ltibia 33.7416
lfoot -4.63974 15.2755
ltoes 24.0948
